<?xml version="1.0" encoding="UTF-8"?>
<svg id="Layer_2" data-name="Layer 2" xmlns="http://www.w3.org/2000/svg" xmlns:xlink="http://www.w3.org/1999/xlink" viewBox="0 0 63.75 63.5">
  <defs>
    <style>
      .cls-1 {
        fill: #d9c194;
      }

      .cls-2 {
        fill: url(#_무제_그라디언트_2);
      }
    </style>
    <linearGradient id="_무제_그라디언트_2" data-name="무제 그라디언트 2" x1="58.75" y1="21.65" x2="58.65" y2="21.47" gradientUnits="userSpaceOnUse">
      <stop offset="0" stop-color="#d9c194"/>
      <stop offset="1" stop-color="#b39e79"/>
    </linearGradient>
  </defs>
  <g id="Layer_1-2" data-name="Layer 1">
    <g>
      <polygon class="cls-2" points="58.78 21.62 58.78 21.63 58.61 21.49 58.78 21.62"/>
      <polygon class="cls-1" points="53.98 42.85 53.48 42.85 44.96 42.85 44.96 43.85 53.48 43.85 53.98 43.85 54.48 43.85 55.4 43.85 55.4 42.85 54.48 42.85 53.98 42.85"/>
      <polygon class="cls-1" points="53.22 36.41 52.68 36.41 44.96 36.41 44.96 37.41 53.02 37.41 53.54 37.41 54.06 37.41 55.4 37.41 55.4 36.41 53.75 36.41 53.22 36.41"/>
      <polygon class="cls-1" points="53.98 49.3 53.48 49.3 31.54 49.3 31.54 50.3 53.48 50.3 53.98 50.3 54.48 50.3 55.4 50.3 55.4 49.3 54.48 49.3 53.98 49.3"/>
      <polygon class="cls-1" points="51.31 55.74 50.28 55.74 31.54 55.74 31.54 56.25 31.54 56.74 50.51 56.74 55.4 56.74 55.4 55.74 52.13 55.74 51.31 55.74"/>
      <path class="cls-1" d="m36.58,46.12c2.08,0,3.77-1.83,3.77-4.07v-2.91l-9.93-5.96v-2.26c0-.68.21-1.3.56-1.8.13-.19.28-.36.45-.5.24-.22.52-.39.82-.5.29-.12.6-.18.92-.18h3.41c.32,0,.63.06.92.18.3.11.58.28.82.5.17.14.32.31.45.5.36.5.57,1.12.57,1.8v5.23l-6.85-4.15v-1.09c0-.4.3-.72.66-.72h3.4c.37,0,.67.32.67.72v2.59l1.01.65v-3.24c0-.9-.61-1.66-1.42-1.79-.08-.02-.17-.03-.26-.03h-3.4c-.08,0-.17.01-.25.03-.8.12-1.42.88-1.42,1.79v1.73l8.87,5.38v-7.1c0-.65-.14-1.26-.4-1.8-.07-.17-.16-.34-.26-.5-.11-.18-.24-.34-.38-.5-.68-.78-1.65-1.27-2.73-1.27h-3.41c-1.07,0-2.04.49-2.73,1.27-.14.16-.26.32-.38.5-.09.16-.18.33-.26.5-.25.54-.39,1.15-.39,1.8v2.91l9.93,5.95v2.27c0,1.64-1.24,2.97-2.76,2.97h-3.41c-1.52,0-2.75-1.33-2.75-2.97v-5.13l6.71,4.05v1.08c0,.12-.03.72-.53.72h-3.4c-.37,0-.67-.32-.67-.72v-2.53l-1.01-.65v3.18c0,1,.76,1.81,1.68,1.81h3.4c.89,0,1.54-.76,1.54-1.81v-1.72l-8.73-5.27v6.99c0,2.24,1.69,4.07,3.76,4.07h3.41Z"/>
      <path class="cls-1" d="m55.19,15.37c-2.09,0-4.01.76-5.5,2.01h-12.86c1.06-1.74,1.67-3.78,1.67-5.95,0-6.3-5.13-11.43-11.43-11.43s-11.44,5.13-11.44,11.43,4.93,11.24,11.07,11.43c-.09.43-.13.87-.13,1.32v3.94h-14.07c-6.89,0-12.5,5.61-12.5,12.5v10.13c0,3.58,2.92,6.5,6.5,6.5h20.1c.27,3.49,3.2,6.25,6.77,6.25h20.21c3.75,0,6.8-3.05,6.8-6.8v-25.96c2.05-1.56,3.37-4.03,3.37-6.81,0-4.72-3.84-8.56-8.56-8.56Zm-28.62,40.88H6.5c-3.03,0-5.5-2.47-5.5-5.5v-10.13c0-6.34,5.16-11.5,11.5-11.5h14.07v27.13ZM16.63,11.43c0-5.75,4.68-10.43,10.44-10.43s10.43,4.68,10.43,10.43c0,2.21-.69,4.26-1.87,5.95h-2.26c-2.94,0-5.45,1.88-6.39,4.49-5.72-.05-10.35-4.71-10.35-10.44Zm42.75,45.27c0,3.19-2.6,5.8-5.8,5.8h-20.21c-3.01,0-5.49-2.31-5.77-5.25-.02-.16-.03-.33-.03-.5V24.18c0-.46.05-.9.16-1.33.03-.18.08-.35.15-.51.05-.18.12-.35.2-.52.9-2.03,2.93-3.44,5.29-3.44h15.32c-1.29,1.49-2.06,3.43-2.06,5.55,0,4.73,3.84,8.57,8.56,8.57,1.52,0,2.95-.4,4.19-1.09v25.29Zm1-27.99c-.15.18-.32.34-.5.5-.16.14-.33.28-.5.4-1.17.88-2.62,1.39-4.19,1.39-3.89,0-7.06-3.17-7.06-7.07,0-2.25,1.06-4.26,2.71-5.55.23-.19.47-.36.73-.5.31-.2.64-.36.98-.5.82-.33,1.71-.51,2.64-.51,3.89,0,7.06,3.17,7.06,7.06,0,1.84-.71,3.52-1.87,4.78Z"/>
      <polygon class="cls-1" points="59.42 22.14 59.13 22.5 53.92 29.02 50.92 24.52 51.3 24.27 51.54 24.11 51.55 24.11 51.79 23.95 52.17 23.69 52.28 23.86 54.03 26.48 57.52 22.12 58.25 21.21 58.61 21.49 58.78 21.63 58.84 21.68 59.07 21.86 59.42 22.14"/>
    </g>
  </g>
</svg>