<?xml version="1.0" encoding="UTF-8"?>
<svg id="Layer_2" data-name="Layer 2" xmlns="http://www.w3.org/2000/svg" viewBox="0 0 69.76 69.59">
  <defs>
    <style>
      .cls-1 {
        fill: #80789b;
      }

      .cls-2 {
        fill: #d9c194;
      }
    </style>
  </defs>
  <g id="Layer_1-2" data-name="Layer 1">
    <g>
      <g>
        <path class="cls-1" d="m41.76,47.67v-3.19l-12.48-7.49v-2.85c0-2.06,1.56-3.73,3.46-3.73h4.29c1.91,0,3.46,1.67,3.46,3.73v6.58l-8.61-5.22v-1.37c0-.5.38-.91.84-.91h4.28c.46,0,.83.41.83.91v3.26l1.28.82v-4.08c0-1.26-.95-2.28-2.11-2.28h-4.28c-1.16,0-2.11,1.02-2.11,2.28v2.17l11.15,6.77v-8.93c0-2.81-2.12-5.11-4.73-5.11h-4.29c-2.6,0-4.73,2.3-4.73,5.11v3.66l12.48,7.49v2.32c-.53.04-1.04.18-1.5.38v-2.01l-10.98-6.63v8.79c0,2.82,2.13,5.11,4.73,5.11h3.45c.4,2.24,2.36,3.94,4.71,3.94,2.65,0,4.8-2.15,4.8-4.8,0-2.35-1.7-4.31-3.94-4.72Zm-11.09-3.53v4c0,1.26.95,2.28,2.11,2.28h3.76c-.21.45-.35.95-.41,1.46h-3.39c-1.9,0-3.46-1.68-3.46-3.74v-6.45l8.44,5.1v1.35c0,.15-.03.91-.67.91h-4.27c-.46,0-.84-.41-.84-.91v-3.18l-1.27-.82Zm10.23,12.05c-1.8,0-3.31-1.26-3.69-2.95-.07-.27-.1-.56-.1-.85,0-.18.01-.35.04-.52.08-.58.29-1.12.6-1.59.27-.4.61-.74,1-1.02.5-.34,1.09-.57,1.71-.64.15-.02.29-.03.44-.03.29,0,.57.03.84.1,1.69.38,2.96,1.9,2.96,3.7,0,2.1-1.7,3.8-3.8,3.8Z"/>
        <polygon class="cls-1" points="43.3 51.46 40.2 55.34 38.61 52.95 38.48 52.76 38.77 52.58 38.9 52.49 39.03 52.4 39.31 52.21 39.39 52.33 39.5 52.49 40.27 53.65 42.04 51.44 42.52 50.84 42.79 51.05 42.91 51.15 43.04 51.25 43.3 51.46"/>
        <path class="cls-1" d="m17.47,61.51c-.39-.61-.94-1.12-1.59-1.47h0c-.65-.36-1.39-.57-2.18-.57H4.51c-2.49,0-4.51,2.02-4.51,4.51v3.09c0,1.39,1.13,2.52,2.51,2.52h13.19c1.39,0,2.52-1.13,2.52-2.52v-3.09c0-.91-.27-1.76-.75-2.47Zm-.28,5.56c0,.82-.67,1.49-1.49,1.49H2.51c-.82,0-1.48-.67-1.48-1.49v-3.09c0-1.92,1.56-3.48,3.48-3.48h9.19c1.92,0,3.49,1.56,3.49,3.48v3.09Z"/>
        <path class="cls-1" d="m60.6,48.73s-.06-.01-.09-.01c-.54,0-1.07.09-1.55.25.79-2.44,1.22-5.05,1.22-7.75,0-10.74-6.72-19.93-16.18-23.59v-2.37c0-2.49-2.03-4.52-4.52-4.52h-9.18c-2.49,0-4.52,2.03-4.52,4.52v2.36c-9.47,3.66-16.2,12.86-16.2,23.6,0,2.76.44,5.41,1.27,7.89-.52-.22-1.08-.35-1.67-.38-.08-.01-.15-.01-.23-.01-2.73,0-4.96,2.23-4.96,4.96s2.23,4.95,4.96,4.95c1.66,0,3.12-.82,4.02-2.07.33-.45.58-.97.73-1.52,4.52,6.9,12.33,11.47,21.18,11.47s16.42-4.43,20.97-11.15c.19.52.46,1,.8,1.42.91,1.13,2.3,1.85,3.86,1.85,2.73,0,4.96-2.22,4.96-4.95s-2.18-4.91-4.87-4.95ZM26.81,15.26c0-1.92,1.56-3.49,3.49-3.49h9.18c1.92,0,3.49,1.57,3.49,3.49v3.09c0,.82-.67,1.48-1.49,1.48h-13.18c-.82,0-1.49-.66-1.49-1.48v-3.09Zm-13.91,38.46c-.01.71-.2,1.37-.54,1.94-.68,1.18-1.95,1.97-3.41,1.97-2.18,0-3.96-1.77-3.96-3.95s1.78-3.96,3.96-3.96c.19,0,.38.01.56.04.2.03.4.07.59.14.14.03.27.08.4.14.15.06.31.14.45.23.13.07.25.15.36.24.02.01.04.03.06.04h0c.11.09.21.18.31.28.09.07.17.16.24.25.06.07.13.15.19.23.02.02.04.05.05.08.05.07.1.13.14.21.06.08.12.18.16.27.05.1.1.19.14.29.12.29.2.59.25.91.02.08.03.16.03.24.01.12.02.25.02.37v.04Zm42.68.29c-4.3,6.93-11.97,11.55-20.7,11.55s-16.73-4.84-20.98-12h-.01s.01-.02,0-.03c-.04-1.45-.71-2.75-1.74-3.62-1.04-2.7-1.61-5.63-1.61-8.69,0-10.21,6.32-18.98,15.26-22.57.15,1.24,1.21,2.21,2.5,2.21h13.18c1.29,0,2.35-.97,2.5-2.21,8.93,3.61,15.24,12.37,15.24,22.57,0,2.93-.52,5.75-1.48,8.35-1.31.89-2.18,2.4-2.18,4.11,0,.11,0,.22.02.33Zm4.93,3.62c-1.35,0-2.55-.68-3.26-1.72-.08-.11-.15-.23-.21-.35-.1-.16-.17-.33-.23-.51-.06-.13-.1-.26-.13-.4-.03-.15-.06-.3-.08-.46h0c-.02-.09-.02-.17-.03-.26-.01-.08-.01-.17-.01-.25,0-.15.01-.29.02-.43.01-.04.01-.09.02-.13.02-.14.05-.28.09-.42.15-.61.44-1.15.84-1.61.07-.08.15-.16.23-.24.22-.22.47-.41.74-.58.23-.13.47-.24.73-.33.06-.03.13-.05.2-.06.11-.04.22-.06.33-.08.02-.01.03-.01.05-.01.15-.03.31-.05.47-.06.07-.01.15-.01.23-.01,2.18,0,3.96,1.78,3.96,3.96s-1.78,3.95-3.96,3.95Z"/>
        <path class="cls-1" d="m34.73,0c-2.73,0-4.96,2.22-4.96,4.95s2.23,4.96,4.96,4.96,4.96-2.22,4.96-4.96-2.23-4.95-4.96-4.95Zm0,8.91c-2.18,0-3.96-1.77-3.96-3.96s1.78-3.95,3.96-3.95,3.96,1.77,3.96,3.95-1.78,3.96-3.96,3.96Z"/>
        <path class="cls-1" d="m65.26,59.48h-9.18c-.8,0-1.54.21-2.19.57t-.01.01c-.62.34-1.14.83-1.53,1.41,0,0-.01,0-.01.01-.48.72-.76,1.57-.76,2.5v2.6c0,1.37,1.12,2.5,2.5,2.5h13.18c1.38,0,2.5-1.13,2.5-2.5v-2.6c0-2.48-2.01-4.5-4.5-4.5Zm3.5,7.1c0,.82-.67,1.5-1.5,1.5h-13.18c-.83,0-1.5-.68-1.5-1.5v-2.6c0-1.93,1.57-3.5,3.5-3.5h9.18c1.93,0,3.5,1.57,3.5,3.5v2.6Z"/>
        <path class="cls-1" d="m61.89,41.22c0,1.57-.14,3.14-.41,4.68,0,0,0,0,0,0-.08.01-.15.03-.22.08-.31.13-.55.42-.62.79-.07.36.03.7.25.95.16.19.38.32.64.37.61.12,1.21-.28,1.32-.89.08-.42-.08-.82-.38-1.08,0,0,0,0,0,0,.28-1.61.43-3.25.43-4.9,0-11.47-6.87-21.66-17.5-25.96l-.38.93c10.25,4.15,16.88,13.97,16.88,25.03Z"/>
        <path class="cls-1" d="m8.74,47.97c-.56-2.19-.85-4.46-.85-6.75,0-10.25,5.84-19.6,14.96-24.15.04.03.08.05.11.07.31.19.7.23,1.05.07.36-.15.59-.48.65-.84.04-.21.01-.44-.08-.65-.26-.57-.93-.82-1.49-.57-.41.19-.66.58-.67,1,0,0,0,0,0,.01-9.46,4.71-15.53,14.42-15.53,25.06,0,2.37.3,4.73.88,7l.97-.25Z"/>
        <path class="cls-1" d="m34.89,68.22c-4.72,0-9.33-1.24-13.4-3.58.01-.1,0-.2,0-.29-.05-.3-.22-.58-.5-.75-.28-.18-.61-.21-.91-.13-.26.08-.5.24-.65.49-.33.52-.17,1.22.35,1.55.38.23.84.23,1.19.01,0,0,.01-.01.02-.02,4.22,2.42,9,3.72,13.91,3.72,5.65,0,11.1-1.68,15.75-4.85l-.56-.83c-4.49,3.06-9.74,4.68-15.19,4.68Z"/>
      </g>
      <g>
        <path class="cls-2" d="m41.76,47.67v-3.19l-12.48-7.49v-2.85c0-2.06,1.56-3.73,3.46-3.73h4.29c1.91,0,3.46,1.67,3.46,3.73v6.58l-8.61-5.22v-1.37c0-.5.38-.91.84-.91h4.28c.46,0,.83.41.83.91v3.26l1.28.82v-4.08c0-1.26-.95-2.28-2.11-2.28h-4.28c-1.16,0-2.11,1.02-2.11,2.28v2.17l11.15,6.77v-8.93c0-2.81-2.12-5.11-4.73-5.11h-4.29c-2.6,0-4.73,2.3-4.73,5.11v3.66l12.48,7.49v2.32c-.53.04-1.04.18-1.5.38v-2.01l-10.98-6.63v8.79c0,2.82,2.13,5.11,4.73,5.11h3.45c.4,2.24,2.36,3.94,4.71,3.94,2.65,0,4.8-2.15,4.8-4.8,0-2.35-1.7-4.31-3.94-4.72Zm-11.09-3.53v4c0,1.26.95,2.28,2.11,2.28h3.76c-.21.45-.35.95-.41,1.46h-3.39c-1.9,0-3.46-1.68-3.46-3.74v-6.45l8.44,5.1v1.35c0,.15-.03.91-.67.91h-4.27c-.46,0-.84-.41-.84-.91v-3.18l-1.27-.82Zm10.23,12.05c-1.8,0-3.31-1.26-3.69-2.95-.07-.27-.1-.56-.1-.85,0-.18.01-.35.04-.52.08-.58.29-1.12.6-1.59.27-.4.61-.74,1-1.02.5-.34,1.09-.57,1.71-.64.15-.02.29-.03.44-.03.29,0,.57.03.84.1,1.69.38,2.96,1.9,2.96,3.7,0,2.1-1.7,3.8-3.8,3.8Z"/>
        <polygon class="cls-2" points="43.3 51.46 40.2 55.34 38.61 52.95 38.48 52.76 38.77 52.58 38.9 52.49 39.03 52.4 39.31 52.21 39.39 52.33 39.5 52.49 40.27 53.65 42.04 51.44 42.52 50.84 42.79 51.05 42.91 51.15 43.04 51.25 43.3 51.46"/>
        <path class="cls-2" d="m17.47,61.51c-.39-.61-.94-1.12-1.59-1.47h0c-.65-.36-1.39-.57-2.18-.57H4.51c-2.49,0-4.51,2.02-4.51,4.51v3.09c0,1.39,1.13,2.52,2.51,2.52h13.19c1.39,0,2.52-1.13,2.52-2.52v-3.09c0-.91-.27-1.76-.75-2.47Zm-.28,5.56c0,.82-.67,1.49-1.49,1.49H2.51c-.82,0-1.48-.67-1.48-1.49v-3.09c0-1.92,1.56-3.48,3.48-3.48h9.19c1.92,0,3.49,1.56,3.49,3.48v3.09Z"/>
        <path class="cls-2" d="m60.6,48.73s-.06-.01-.09-.01c-.54,0-1.07.09-1.55.25.79-2.44,1.22-5.05,1.22-7.75,0-10.74-6.72-19.93-16.18-23.59v-2.37c0-2.49-2.03-4.52-4.52-4.52h-9.18c-2.49,0-4.52,2.03-4.52,4.52v2.36c-9.47,3.66-16.2,12.86-16.2,23.6,0,2.76.44,5.41,1.27,7.89-.52-.22-1.08-.35-1.67-.38-.08-.01-.15-.01-.23-.01-2.73,0-4.96,2.23-4.96,4.96s2.23,4.95,4.96,4.95c1.66,0,3.12-.82,4.02-2.07.33-.45.58-.97.73-1.52,4.52,6.9,12.33,11.47,21.18,11.47s16.42-4.43,20.97-11.15c.19.52.46,1,.8,1.42.91,1.13,2.3,1.85,3.86,1.85,2.73,0,4.96-2.22,4.96-4.95s-2.18-4.91-4.87-4.95ZM26.81,15.26c0-1.92,1.56-3.49,3.49-3.49h9.18c1.92,0,3.49,1.57,3.49,3.49v3.09c0,.82-.67,1.48-1.49,1.48h-13.18c-.82,0-1.49-.66-1.49-1.48v-3.09Zm-13.91,38.46c-.01.71-.2,1.37-.54,1.94-.68,1.18-1.95,1.97-3.41,1.97-2.18,0-3.96-1.77-3.96-3.95s1.78-3.96,3.96-3.96c.19,0,.38.01.56.04.2.03.4.07.59.14.14.03.27.08.4.14.15.06.31.14.45.23.13.07.25.15.36.24.02.01.04.03.06.04h0c.11.09.21.18.31.28.09.07.17.16.24.25.06.07.13.15.19.23.02.02.04.05.05.08.05.07.1.13.14.21.06.08.12.18.16.27.05.1.1.19.14.29.12.29.2.59.25.91.02.08.03.16.03.24.01.12.02.25.02.37v.04Zm42.68.29c-4.3,6.93-11.97,11.55-20.7,11.55s-16.73-4.84-20.98-12h-.01s.01-.02,0-.03c-.04-1.45-.71-2.75-1.74-3.62-1.04-2.7-1.61-5.63-1.61-8.69,0-10.21,6.32-18.98,15.26-22.57.15,1.24,1.21,2.21,2.5,2.21h13.18c1.29,0,2.35-.97,2.5-2.21,8.93,3.61,15.24,12.37,15.24,22.57,0,2.93-.52,5.75-1.48,8.35-1.31.89-2.18,2.4-2.18,4.11,0,.11,0,.22.02.33Zm4.93,3.62c-1.35,0-2.55-.68-3.26-1.72-.08-.11-.15-.23-.21-.35-.1-.16-.17-.33-.23-.51-.06-.13-.1-.26-.13-.4-.03-.15-.06-.3-.08-.46h0c-.02-.09-.02-.17-.03-.26-.01-.08-.01-.17-.01-.25,0-.15.01-.29.02-.43.01-.04.01-.09.02-.13.02-.14.05-.28.09-.42.15-.61.44-1.15.84-1.61.07-.08.15-.16.23-.24.22-.22.47-.41.74-.58.23-.13.47-.24.73-.33.06-.03.13-.05.2-.06.11-.04.22-.06.33-.08.02-.01.03-.01.05-.01.15-.03.31-.05.47-.06.07-.01.15-.01.23-.01,2.18,0,3.96,1.78,3.96,3.96s-1.78,3.95-3.96,3.95Z"/>
        <path class="cls-2" d="m34.73,0c-2.73,0-4.96,2.22-4.96,4.95s2.23,4.96,4.96,4.96,4.96-2.22,4.96-4.96-2.23-4.95-4.96-4.95Zm0,8.91c-2.18,0-3.96-1.77-3.96-3.96s1.78-3.95,3.96-3.95,3.96,1.77,3.96,3.95-1.78,3.96-3.96,3.96Z"/>
        <path class="cls-2" d="m65.26,59.48h-9.18c-.8,0-1.54.21-2.19.57t-.01.01c-.62.34-1.14.83-1.53,1.41,0,0-.01,0-.01.01-.48.72-.76,1.57-.76,2.5v2.6c0,1.37,1.12,2.5,2.5,2.5h13.18c1.38,0,2.5-1.13,2.5-2.5v-2.6c0-2.48-2.01-4.5-4.5-4.5Zm3.5,7.1c0,.82-.67,1.5-1.5,1.5h-13.18c-.83,0-1.5-.68-1.5-1.5v-2.6c0-1.93,1.57-3.5,3.5-3.5h9.18c1.93,0,3.5,1.57,3.5,3.5v2.6Z"/>
        <path class="cls-2" d="m61.89,41.22c0,1.57-.14,3.14-.41,4.68,0,0,0,0,0,0-.08.01-.15.03-.22.08-.31.13-.55.42-.62.79-.07.36.03.7.25.95.16.19.38.32.64.37.61.12,1.21-.28,1.32-.89.08-.42-.08-.82-.38-1.08,0,0,0,0,0,0,.28-1.61.43-3.25.43-4.9,0-11.47-6.87-21.66-17.5-25.96l-.38.93c10.25,4.15,16.88,13.97,16.88,25.03Z"/>
        <path class="cls-2" d="m8.74,47.97c-.56-2.19-.85-4.46-.85-6.75,0-10.25,5.84-19.6,14.96-24.15.04.03.08.05.11.07.31.19.7.23,1.05.07.36-.15.59-.48.65-.84.04-.21.01-.44-.08-.65-.26-.57-.93-.82-1.49-.57-.41.19-.66.58-.67,1,0,0,0,0,0,.01-9.46,4.71-15.53,14.42-15.53,25.06,0,2.37.3,4.73.88,7l.97-.25Z"/>
        <path class="cls-2" d="m34.89,68.22c-4.72,0-9.33-1.24-13.4-3.58.01-.1,0-.2,0-.29-.05-.3-.22-.58-.5-.75-.28-.18-.61-.21-.91-.13-.26.08-.5.24-.65.49-.33.52-.17,1.22.35,1.55.38.23.84.23,1.19.01,0,0,.01-.01.02-.02,4.22,2.42,9,3.72,13.91,3.72,5.65,0,11.1-1.68,15.75-4.85l-.56-.83c-4.49,3.06-9.74,4.68-15.19,4.68Z"/>
      </g>
    </g>
  </g>
</svg>