<?xml version="1.0" encoding="UTF-8"?>
<svg id="Layer_2" data-name="Layer 2" xmlns="http://www.w3.org/2000/svg" viewBox="0 0 66.13 60.3">
  <defs>
    <style>
      .cls-1 {
        fill: #d9c194;
      }
    </style>
  </defs>
  <g id="Layer_1-2" data-name="Layer 1">
    <g>
      <path class="cls-1" d="m32.25,8.74h9.94v11.07c-.37.19-.63.56-.63,1,0,.62.51,1.13,1.13,1.13s1.13-.51,1.13-1.13c0-.44-.26-.81-.63-1V7.74h0s-10.94,0-10.94,0V3.5c0-1.93-1.57-3.5-3.5-3.5H3.5C1.57,0,0,1.57,0,3.5v28.3c0,1.93,1.57,3.5,3.5,3.5h1.19v7.81h0s10.38,0,10.38,0c.19.37.56.63,1,.63.62,0,1.13-.51,1.13-1.13s-.51-1.13-1.13-1.13c-.44,0-.81.26-1,.63H5.69v-6.81h14.63v9.26l7.09,1.94v13.8h9.18v-11.3l19.09,5.21V21.65l-23.42,6.39V8.74ZM3.5,1h25.25c1.28,0,2.34.96,2.48,2.2,0,0,0,0,0,0l-30.22.1c.1-1.29,1.18-2.3,2.49-2.3Zm1.19,30.18h-2.13V13.43h2.13v17.75ZM2.07,5.11v6.25h2.63v1.56h-2.63v18.75h2.63v2.62h-1.19c-1.38,0-2.5-1.12-2.5-2.5V3.8l30.25-.1v4.04h-1.06v-2.62h-6.25v21.33h6.25V8.74h1.06v19.57l-8.87,2.42h0s0-17.8,0-17.8H5.69v-1.56h16.69v-6.25H2.07Zm18.25,29.19H5.69v-2.62h14.63v2.62Zm-14.63-3.12V13.43h16.19v17.43l-1.14.32H5.69Zm21.94,3.12v11.21l-6.31-1.72v-11.73l6.31-1.72v3.96Zm7.95,25h-7.18v-12.53h0s7.17,1.96,7.17,1.96h0v10.57Zm19.09-36.34v29.94l-18.09-4.94-8.45-2.31v-15.45l3.12-.85.5-.14.5-.13,22.42-6.12Z"/>
      <rect class="cls-1" x="58.32" y="37.43" width="7.81" height="1"/>
      <rect class="cls-1" x="58.32" y="23.75" width="7.81" height="1" transform="translate(-4.54 22.8) rotate(-20.05)"/>
      <rect class="cls-1" x="61.72" y="47.69" width="1" height="7.81" transform="translate(-7.54 92.42) rotate(-70)"/>
    </g>
  </g>
</svg>