<?xml version="1.0" encoding="UTF-8"?>
<svg id="Layer_2" data-name="Layer 2" xmlns="http://www.w3.org/2000/svg" viewBox="0 0 63.5 63.5">
  <defs>
    <style>
      .cls-1 {
        fill: #d9c194;
      }
    </style>
  </defs>
  <g id="Layer_1-2" data-name="Layer 1">
    <g>
      <path class="cls-1" d="m31.75,0C14.24,0,0,14.24,0,31.75s14.24,31.75,31.75,31.75,31.75-14.24,31.75-31.75S49.26,0,31.75,0Zm0,62.5C14.79,62.5,1,48.71,1,31.75S14.79,1,31.75,1s30.75,13.79,30.75,30.75-13.79,30.75-30.75,30.75Z"/>
      <path class="cls-1" d="m31.75,27.67c-2.25,0-4.08,1.83-4.08,4.08s1.83,4.08,4.08,4.08,4.08-1.83,4.08-4.08-1.83-4.08-4.08-4.08Z"/>
      <circle class="cls-1" cx="16.13" cy="31.75" r="4.08"/>
      <path class="cls-1" d="m47.38,27.67c-2.25,0-4.08,1.83-4.08,4.08s1.83,4.08,4.08,4.08,4.08-1.83,4.08-4.08-1.83-4.08-4.08-4.08Z"/>
    </g>
  </g>
</svg>