<?xml version="1.0" encoding="UTF-8"?>
<svg id="Layer_2" data-name="Layer 2" xmlns="http://www.w3.org/2000/svg" xmlns:xlink="http://www.w3.org/1999/xlink" viewBox="0 0 63.75 63.5">
  <defs>
    <style>
      .cls-1 {
        fill: #fff;
      }

      .cls-2 {
        fill: #d9c194;
      }

      .cls-3 {
        fill: url(#_무제_그라디언트_2);
      }
    </style>
    <linearGradient id="_무제_그라디언트_2" data-name="무제 그라디언트 2" x1="58.75" y1="21.65" x2="58.65" y2="21.47" gradientUnits="userSpaceOnUse">
      <stop offset="0" stop-color="#d9c194"/>
      <stop offset="1" stop-color="#b39e79"/>
    </linearGradient>
  </defs>
  <g id="Layer_1-2" data-name="Layer 1">
    <g>
      <polygon class="cls-3" points="58.78 21.62 58.78 21.63 58.61 21.49 58.78 21.62"/>
      <rect class="cls-2" x="44.96" y="42.85" width="10.44" height="1"/>
      <rect class="cls-2" x="44.96" y="36.41" width="10.44" height="1"/>
      <rect class="cls-2" x="31.54" y="49.3" width="23.86" height="1"/>
      <rect class="cls-2" x="31.54" y="55.74" width="23.86" height="1"/>
      <path class="cls-2" d="m37.22,33.5v-2.59c0-.4-.3-.72-.67-.72h-3.4c-.36,0-.66.32-.66.72v1.09l6.85,4.15v-5.23c0-.68-.21-1.3-.57-1.8-.13-.19-.28-.36-.45-.5-.24-.22-.52-.39-.82-.5-.29-.12-.6-.18-.92-.18h-3.41c-.32,0-.63.06-.92.18-.3.11-.58.28-.82.5-.17.14-.32.31-.45.5-.35.5-.56,1.12-.56,1.8v2.26l9.93,5.96v2.91c0,2.24-1.69,4.07-3.77,4.07h-3.41c-2.07,0-3.76-1.83-3.76-4.07v-6.99l8.73,5.27v1.72c0,1.05-.65,1.81-1.54,1.81h-3.4c-.92,0-1.68-.81-1.68-1.81v-3.18l1.01.65v2.53c0,.4.3.72.67.72h3.4c.5,0,.53-.6.53-.72v-1.08l-6.71-4.05v5.13c0,1.64,1.23,2.97,2.75,2.97h3.41c1.52,0,2.76-1.33,2.76-2.97v-2.27l-9.93-5.95v-2.91c0-.65.14-1.26.39-1.8.08-.17.17-.34.26-.5.12-.18.24-.34.38-.5.69-.78,1.66-1.27,2.73-1.27h3.41c1.08,0,2.05.49,2.73,1.27.14.16.27.32.38.5.1.16.19.33.26.5.26.54.4,1.15.4,1.8v7.1l-8.87-5.38v-1.73c0-.91.62-1.67,1.42-1.79.08-.02.17-.03.25-.03h3.4c.09,0,.18.01.26.03.81.13,1.42.89,1.42,1.79v3.24l-1.01-.65Z"/>
      <path class="cls-2" d="m55.19,15.37c-2.09,0-4.01.76-5.5,2.01h-12.86c1.06-1.74,1.67-3.78,1.67-5.95,0-6.3-5.13-11.43-11.43-11.43s-11.44,5.13-11.44,11.43,4.93,11.24,11.07,11.43c-.09.43-.13.87-.13,1.32v3.94h-14.07c-6.89,0-12.5,5.61-12.5,12.5v10.13c0,3.58,2.92,6.5,6.5,6.5h20.1c.27,3.49,3.2,6.25,6.77,6.25h20.21c3.75,0,6.8-3.05,6.8-6.8v-25.96c2.05-1.56,3.37-4.03,3.37-6.81,0-4.72-3.84-8.56-8.56-8.56Zm-28.62,40.88H6.5c-3.03,0-5.5-2.47-5.5-5.5v-10.13c0-6.34,5.16-11.5,11.5-11.5h14.07v27.13ZM16.63,11.43c0-5.75,4.68-10.43,10.44-10.43s10.43,4.68,10.43,10.43c0,2.21-.69,4.26-1.87,5.95h-2.26c-2.94,0-5.45,1.88-6.39,4.49-5.72-.05-10.35-4.71-10.35-10.44Zm42.75,45.27c0,3.19-2.6,5.8-5.8,5.8h-20.21c-3.01,0-5.49-2.31-5.77-5.25-.02-.16-.03-.33-.03-.5V24.18c0-.46.05-.9.16-1.33.03-.18.08-.35.15-.51.05-.18.12-.35.2-.52.9-2.03,2.93-3.44,5.29-3.44h15.32c-1.29,1.49-2.06,3.43-2.06,5.55,0,4.73,3.84,8.57,8.56,8.57,1.52,0,2.95-.4,4.19-1.09v25.29Zm1-27.99c-.15.18-.32.34-.5.5-.16.14-.33.28-.5.4-1.17.88-2.62,1.39-4.19,1.39-3.89,0-7.06-3.17-7.06-7.07,0-2.25,1.06-4.26,2.71-5.55.23-.19.47-.36.73-.5.31-.2.64-.36.98-.5.82-.33,1.71-.51,2.64-.51,3.89,0,7.06,3.17,7.06,7.06,0,1.84-.71,3.52-1.87,4.78Z"/>
      <path class="cls-1" d="m55.19,16.87c-.93,0-1.82.18-2.64.51-.34.14-.67.3-.98.5-.26.14-.5.31-.73.5-1.65,1.29-2.71,3.3-2.71,5.55,0,3.9,3.17,7.07,7.06,7.07,1.57,0,3.02-.51,4.19-1.39.17-.12.34-.26.5-.4.18-.16.35-.32.5-.5,1.16-1.26,1.87-2.94,1.87-4.78,0-3.89-3.17-7.06-7.06-7.06Zm3.94,5.63l-5.21,6.52-3-4.5.38-.25.24-.16h.01l.24-.16.38-.26.11.17,1.75,2.62,3.49-4.36.73-.91.36.28.17.13h0s.06.06.06.06l.23.18.35.28-.29.36Z"/>
      <path class="cls-1" d="m55.19,32.5c-4.72,0-8.56-3.84-8.56-8.57,0-2.12.77-4.06,2.06-5.55h-15.32c-2.36,0-4.39,1.41-5.29,3.44-.08.17-.15.34-.2.52-.07.16-.12.33-.15.51-.11.43-.16.87-.16,1.33v32.57c0,.17,0,.34.03.5.28,2.94,2.76,5.25,5.77,5.25h20.21c3.2,0,5.8-2.61,5.8-5.8v-25.29c-1.24.69-2.67,1.09-4.19,1.09Zm-25.78,9.55v-6.99l8.73,5.27v1.72c0,1.05-.65,1.81-1.54,1.81h-3.4c-.92,0-1.68-.81-1.68-1.81v-3.18l1.01.65v2.53c0,.4.3.72.67.72h3.4c.5,0,.53-.6.53-.72v-1.08l-6.71-4.05v5.13c0,1.64,1.23,2.97,2.75,2.97h3.41c1.52,0,2.76-1.33,2.76-2.97v-2.27l-9.93-5.95v-2.91c0-.65.14-1.26.39-1.8.08-.17.17-.34.26-.5.12-.18.24-.34.38-.5.69-.78,1.66-1.27,2.73-1.27h3.41c1.08,0,2.05.49,2.73,1.27.14.16.27.32.38.5.1.16.19.33.26.5.26.54.4,1.15.4,1.8v7.1l-8.87-5.38v-1.73c0-.91.62-1.67,1.42-1.79.08-.02.17-.03.25-.03h3.4c.09,0,.18.01.26.03.81.13,1.42.89,1.42,1.79v3.24l-1.01-.65v-2.59c0-.4-.3-.72-.67-.72h-3.4c-.36,0-.66.32-.66.72v1.09l6.85,4.15v-5.23c0-.68-.21-1.3-.57-1.8-.13-.19-.28-.36-.45-.5-.24-.22-.52-.39-.82-.5-.29-.12-.6-.18-.92-.18h-3.41c-.32,0-.63.06-.92.18-.3.11-.58.28-.82.5-.17.14-.32.31-.45.5-.35.5-.56,1.12-.56,1.8v2.26l9.93,5.96v2.91c0,2.24-1.69,4.07-3.77,4.07h-3.41c-2.07,0-3.76-1.83-3.76-4.07Zm25.99,14.69h-23.86v-1h23.86v1Zm0-6.44h-23.86v-1h23.86v1Zm0-6.45h-10.44v-1h10.44v1Zm0-6.44h-10.44v-1h10.44v1Z"/>
      <path class="cls-1" d="m26.57,29.12v27.13H6.5c-3.03,0-5.5-2.47-5.5-5.5v-10.13c0-6.34,5.16-11.5,11.5-11.5h14.07Z"/>
      <path class="cls-1" d="m37.5,11.43c0,2.21-.69,4.26-1.87,5.95h-2.26c-2.94,0-5.45,1.88-6.39,4.49-5.72-.05-10.35-4.71-10.35-10.44S21.31,1,27.07,1s10.43,4.68,10.43,10.43Z"/>
      <polygon class="cls-2" points="59.42 22.14 59.13 22.5 53.92 29.02 50.92 24.52 51.3 24.27 51.54 24.11 51.55 24.11 51.79 23.95 52.17 23.69 52.28 23.86 54.03 26.48 57.52 22.12 58.25 21.21 58.61 21.49 58.78 21.63 58.84 21.68 59.07 21.86 59.42 22.14"/>
    </g>
  </g>
</svg>