<?xml version="1.0" encoding="UTF-8"?>
<svg id="Layer_2" data-name="Layer 2" xmlns="http://www.w3.org/2000/svg" viewBox="0 0 63.4 61.83">
  <defs>
    <style>
      .cls-1 {
        fill: #fff;
      }

      .cls-2 {
        fill: #d9c194;
      }
    </style>
  </defs>
  <g id="Layer_1-2" data-name="Layer 1">
    <g>
      <g>
        <path class="cls-2" d="m60,0h-29.54c-1.88,0-3.4,1.52-3.4,3.39v6.32L15.72,2.62v5.64H0v7.98h15.72v.24c-2.67,1.44-4.48,4.25-4.48,7.49v3.91l-.86-.86v-.06c0-1.16-1.25-2.07-2.85-2.07s-2.84.91-2.84,2.07,1.25,2.06,2.84,2.06c.38,0,.74-.05,1.08-.15l1.27,1.27c-3.34,2.25-5.54,6.07-5.54,10.38v10.12c0,1.79.73,3.42,1.91,4.6v5.09c0,.83.68,1.5,1.5,1.5h4.25c.83,0,1.5-.67,1.5-1.5v-3.19h36.5v3.19c0,.83.68,1.5,1.5,1.5h4.25c.83,0,1.5-.67,1.5-1.5v-5.46c.94-1.1,1.52-2.53,1.55-4.08h4.6V3.39c0-1.87-1.52-3.39-3.4-3.39ZM1,15.24v-5.98h15.72v-4.84l10.34,6.46.4.25.39.25,1.4.87-1.4.87-.39.25-.4.25-2.96,1.85-1.6,1-5.78,3.61v-4.84H1Zm26.06-.45v.68h-1.08l1.08-.68Zm-14.82,9.18c0-2.66,1.39-5,3.48-6.32v4.23l8.66-5.41h19.64c1.88,0,3.6.7,4.92,1.86.42.35.79.76,1.12,1.21.32.43.59.89.81,1.38.23.51.4,1.04.51,1.6.09.47.14.95.14,1.45v5.18c-.11-.04-.21-.09-.32-.14h-.02c-1.5-.64-3.14-.99-4.86-.99h-29.48c-1.62,0-3.17.31-4.59.87h-.01v-4.92Zm38.81-8.44v3.19c0,.24.04.47.12.68-.34-.55-.75-1.05-1.22-1.51v-4.3l6.71,4.05v1.08c0,.12-.02.72-.53.72h-3.4c-.37,0-.67-.32-.67-.72v-2.54l-1.01-.65ZM8.86,27.7l-.31.13c-.3.13-.65.19-1.02.19-1.08,0-1.84-.56-1.84-1.06s.76-1.07,1.84-1.07,1.85.56,1.85,1.07c0,.04-.01.08-.02.12l-.06.27,1.62,1.63-.39.39-1.67-1.67Zm3.64,32.63c0,.28-.22.5-.5.5h-4.25c-.27,0-.5-.22-.5-.5v-4.28c1.03.69,2.26,1.09,3.59,1.09h1.66v3.19Zm43.75,0c0,.28-.22.5-.5.5h-4.25c-.27,0-.5-.22-.5-.5v-3.19h1.31c1.48,0,2.84-.5,3.94-1.33v4.52Zm1.56-9.69s0,.1-.01.15c-.02,1.04-.33,2-.87,2.82-.09.15-.19.3-.3.44-.12.15-.25.29-.38.43-1,1.03-2.4,1.66-3.94,1.66H10.84c-1.37,0-2.63-.5-3.59-1.33-.17-.15-.33-.31-.48-.48h0c-.14-.15-.26-.3-.37-.45-.67-.91-1.06-2.03-1.06-3.24v-10.12c0-4.31,2.38-8.07,5.9-10.04.17-.09.33-.18.5-.26.16-.09.33-.16.5-.23,1.41-.63,2.96-.97,4.6-.97h29.48c1.87,0,3.64.45,5.2,1.25.17.08.34.17.5.27.17.1.34.2.5.31,3.18,2.04,5.29,5.61,5.29,9.67v10.12Zm-3.67-23.56s-.01-.08-.01-.12c0-.51.76-1.07,1.84-1.07s1.84.56,1.84,1.07-.75,1.06-1.84,1.06c-.36,0-.71-.06-1.01-.19l-.31-.13-1.67,1.67-.4-.39,1.62-1.63-.06-.27Zm8.47,22.92h-3.8v-9.48c0-4.23-2.11-7.97-5.33-10.23l1.42-1.42c.33.1.7.15,1.07.15,1.6,0,2.84-.91,2.84-2.06s-1.24-2.07-2.84-2.07-2.84.91-2.84,2.07v.06l-.61.61v-3.66c0-.41-.03-.81-.09-1.2.09.01.18.01.27.01h3.42c2.07,0,3.76-1.82,3.76-4.06v-2.91l-9.93-5.96v-2.27c0-1.63,1.23-2.97,2.75-2.97h3.42c1.51,0,2.75,1.33,2.75,2.97v5.24l-6.85-4.16v-1.09c0-.39.3-.72.67-.72h3.4c.36,0,.66.33.66.72v2.6l1.01.65v-3.25c0-1-.75-1.81-1.67-1.81h-3.4c-.93,0-1.68.81-1.68,1.81v1.73l8.87,5.38v-7.1c0-2.24-1.69-4.06-3.76-4.06h-3.42c-2.07,0-3.76,1.82-3.76,4.06v2.91l9.93,5.96v2.27c0,1.64-1.24,2.97-2.75,2.97h-3.42c-.18,0-.35-.02-.51-.05-.17-.59-.4-1.15-.68-1.68.31.35.74.57,1.22.57h3.4c.89,0,1.54-.76,1.54-1.81v-1.72l-8.73-5.28v5.33c-1.39-1-3.09-1.58-4.92-1.58h-16.17v-1.17l3.28-2.05-3.28-2.05V3.39c0-1.43,1.17-2.6,2.61-2.6h29.54c1.44,0,2.61,1.17,2.61,2.6v46.61Z"/>
        <path class="cls-1" d="m56.25,55.81v4.52c0,.28-.22.5-.5.5h-4.25c-.27,0-.5-.22-.5-.5v-3.19h1.31c1.48,0,2.84-.5,3.94-1.33Z"/>
        <path class="cls-1" d="m12.5,57.14v3.19c0,.28-.22.5-.5.5h-4.25c-.27,0-.5-.22-.5-.5v-4.28c1.03.69,2.26,1.09,3.59,1.09h1.66Z"/>
        <path class="cls-1" d="m10.92,28.98l-.39.39-1.67-1.67-.31.13c-.3.13-.65.19-1.02.19-1.08,0-1.84-.56-1.84-1.06s.76-1.07,1.84-1.07,1.85.56,1.85,1.07c0,.04-.01.08-.02.12l-.06.27,1.62,1.63Z"/>
        <path class="cls-1" d="m52.52,30.85c-.16-.11-.33-.21-.5-.31-.16-.1-.33-.19-.5-.27-1.56-.8-3.33-1.25-5.2-1.25h-29.48c-1.64,0-3.19.34-4.6.97-.17.07-.34.14-.5.23-.17.08-.33.17-.5.26-3.52,1.97-5.9,5.73-5.9,10.04v10.12c0,1.21.39,2.33,1.06,3.24.11.15.23.3.37.44h0c.15.18.31.34.48.49.96.83,2.22,1.33,3.59,1.33h41.47c1.54,0,2.94-.63,3.94-1.66.13-.14.26-.28.38-.43.11-.14.21-.29.3-.44.54-.82.85-1.78.87-2.82.01-.05.01-.1.01-.15v-10.12c0-4.06-2.11-7.63-5.29-9.67ZM13,47.77c-3.72,0-6.75-3.03-6.75-6.75s3.03-6.75,6.75-6.75,6.75,3.03,6.75,6.75-3.02,6.75-6.75,6.75Zm28.63,2.31c0,.1,0,.21-.02.31,0,.14-.01.27-.03.4-.35,2.7-2.66,4.79-5.45,4.79h-8.75c-3.03,0-5.5-2.47-5.5-5.5v-8.75c0-2.92,2.3-5.32,5.18-5.48.1-.02.21-.02.32-.02h8.75c3.03,0,5.5,2.47,5.5,5.5v8.75Zm8.87-2.31c-3.72,0-6.75-3.03-6.75-6.75s3.03-6.75,6.75-6.75,6.75,3.03,6.75,6.75-3.03,6.75-6.75,6.75Z"/>
        <path class="cls-1" d="m57.81,26.96c0,.5-.75,1.06-1.84,1.06-.36,0-.71-.06-1.01-.19l-.31-.13-1.67,1.67-.4-.39,1.62-1.63-.06-.27s-.01-.08-.01-.12c0-.51.76-1.07,1.84-1.07s1.84.56,1.84,1.07Z"/>
        <path class="cls-1" d="m51.52,23.97v5.18c-.11-.04-.21-.09-.32-.14h-.02c-1.5-.64-3.14-.99-4.86-.99h-29.48c-1.62,0-3.17.31-4.59.87h-.01v-4.92c0-2.66,1.39-5,3.48-6.32v4.23l8.66-5.41h19.64c1.88,0,3.6.7,4.92,1.86.42.35.79.76,1.12,1.21.32.43.59.89.81,1.38.23.51.4,1.04.51,1.6.09.47.14.95.14,1.45Z"/>
        <polygon class="cls-1" points="29.25 12.25 27.85 13.12 27.46 13.37 27.06 13.62 24.1 15.47 22.5 16.47 16.72 20.08 16.72 15.24 1 15.24 1 9.26 16.72 9.26 16.72 4.42 27.06 10.88 27.46 11.13 27.85 11.38 29.25 12.25"/>
        <path class="cls-1" d="m56.66,17.64v1.08c0,.12-.02.72-.53.72h-3.4c-.37,0-.67-.32-.67-.72v-2.54l-1.01-.65v3.19c0,.24.04.47.12.68-.34-.55-.75-1.05-1.22-1.51v-4.3l6.71,4.05Z"/>
        <path class="cls-1" d="m62.61,3.39v46.61h-3.8v-9.48c0-4.23-2.11-7.97-5.33-10.23l1.42-1.42c.33.1.7.15,1.07.15,1.6,0,2.84-.91,2.84-2.06s-1.24-2.07-2.84-2.07-2.84.91-2.84,2.07v.06l-.61.61v-3.66c0-.41-.03-.81-.09-1.2.09.01.18.01.27.01h3.42c2.07,0,3.76-1.82,3.76-4.06v-2.91l-9.93-5.96v-2.27c0-1.63,1.23-2.97,2.75-2.97h3.42c1.51,0,2.75,1.33,2.75,2.97v5.24l-6.85-4.16v-1.09c0-.39.3-.72.67-.72h3.4c.36,0,.66.33.66.72v2.6l1.01.65v-3.25c0-1-.75-1.81-1.67-1.81h-3.4c-.93,0-1.68.81-1.68,1.81v1.73l8.87,5.38v-7.1c0-2.24-1.69-4.06-3.76-4.06h-3.42c-2.07,0-3.76,1.82-3.76,4.06v2.91l9.93,5.96v2.27c0,1.64-1.24,2.97-2.75,2.97h-3.42c-.18,0-.35-.02-.51-.05-.17-.59-.4-1.15-.68-1.68.31.35.74.57,1.22.57h3.4c.89,0,1.54-.76,1.54-1.81v-1.72l-8.73-5.28v5.33c-1.39-1-3.09-1.58-4.92-1.58h-16.17v-1.17l3.28-2.05-3.28-2.05V3.39c0-1.43,1.17-2.6,2.61-2.6h29.54c1.44,0,2.61,1.17,2.61,2.6Z"/>
      </g>
      <g>
        <path class="cls-2" d="m13,34.27c-3.72,0-6.75,3.03-6.75,6.75s3.03,6.75,6.75,6.75,6.75-3.03,6.75-6.75-3.02-6.75-6.75-6.75Zm0,12.5c-3.17,0-5.75-2.58-5.75-5.75s2.58-5.75,5.75-5.75,5.75,2.58,5.75,5.75-2.58,5.75-5.75,5.75Z"/>
        <circle class="cls-1" cx="13" cy="41.02" r="5.75"/>
      </g>
      <g>
        <path class="cls-2" d="m50.5,34.27c-3.72,0-6.75,3.03-6.75,6.75s3.03,6.75,6.75,6.75,6.75-3.03,6.75-6.75-3.03-6.75-6.75-6.75Zm0,12.5c-3.17,0-5.75-2.58-5.75-5.75s2.58-5.75,5.75-5.75,5.75,2.58,5.75,5.75-2.58,5.75-5.75,5.75Z"/>
        <circle class="cls-1" cx="50.5" cy="41.02" r="5.75"/>
      </g>
      <g>
        <path class="cls-2" d="m36.13,35.83h-8.75c-.11,0-.22,0-.32.02-2.88.16-5.18,2.56-5.18,5.48v8.75c0,3.03,2.47,5.5,5.5,5.5h8.75c2.79,0,5.1-2.09,5.45-4.79.02-.13.03-.26.03-.4.02-.1.02-.21.02-.31v-8.75c0-3.03-2.47-5.5-5.5-5.5Zm-9.07,1.01c.11-.01.21-.01.32-.01h8.75c2.2,0,4.04,1.59,4.42,3.69h-17.59c.36-2,2.04-3.53,4.1-3.68Zm9.07,17.74h-8.75c-2.2,0-4.05-1.6-4.43-3.69h17.61c-.38,2.09-2.23,3.69-4.43,3.69Zm4.5-4.69h-17.75v-3.68h17.75v3.68Zm0-4.68h-17.75v-3.69h17.75v3.69Z"/>
        <path class="cls-1" d="m40.56,50.89c-.38,2.09-2.23,3.69-4.43,3.69h-8.75c-2.2,0-4.05-1.6-4.43-3.69h17.61Z"/>
        <rect class="cls-1" x="22.88" y="46.21" width="17.75" height="3.68"/>
        <rect class="cls-1" x="22.88" y="41.52" width="17.75" height="3.69"/>
        <path class="cls-1" d="m40.55,40.52h-17.59c.36-2,2.04-3.53,4.1-3.68.11-.01.21-.01.32-.01h8.75c2.2,0,4.04,1.59,4.42,3.69Z"/>
      </g>
    </g>
  </g>
</svg>