<?xml version="1.0" encoding="UTF-8"?>
<svg id="Layer_2" data-name="Layer 2" xmlns="http://www.w3.org/2000/svg" viewBox="0 0 66.13 60.3">
  <defs>
    <style>
      .cls-1 {
        fill: #fff;
      }

      .cls-2 {
        fill: #d9c194;
      }
    </style>
  </defs>
  <g id="Layer_1-2" data-name="Layer 1">
    <g>
      <path class="cls-2" d="m32.25,28.04V8.74h9.94v11.07c-.37.19-.63.56-.63,1,0,.62.51,1.13,1.13,1.13s1.13-.51,1.13-1.13c0-.44-.26-.81-.63-1V7.74h-10.94V3.5c0-1.93-1.57-3.5-3.5-3.5H3.5C1.57,0,0,1.57,0,3.5v28.3c0,1.93,1.57,3.5,3.5,3.5h1.19v7.81h10.38c.19.37.56.63,1,.63.62,0,1.13-.51,1.13-1.13s-.51-1.13-1.13-1.13c-.44,0-.81.26-1,.63H5.69v-6.81h14.63v9.26l7.09,1.94v13.8h9.17v-11.3l19.09,5.21V21.65l-23.42,6.39ZM3.5,1h25.25c1.28,0,2.34.96,2.48,2.2l-30.22.1c.1-1.29,1.18-2.3,2.49-2.3Zm1.19,30.17h-2.12V13.42h2.12v17.75ZM2.07,5.11v6.25h2.62v1.56h-2.62v18.75h2.62v2.63h-1.19c-1.38,0-2.5-1.12-2.5-2.5V3.8l30.25-.1v4.04h-1.06v-2.63h-6.25v21.33h6.25V8.74h1.06v19.57l-8.87,2.42V12.92H5.69v-1.56h16.69v-6.25H2.07Zm18.25,29.19H5.69v-2.63h14.63v2.63Zm-14.63-3.13V13.42h16.19v17.44l-1.15.31H5.69Zm21.94,14.34l-6.31-1.72v-11.73l6.31-1.72v15.17Zm7.95,13.79h-7.17v-12.53l7.17,1.96v10.57Zm19.09-6.4l-18.09-4.94-8.45-2.31v-15.45l3.12-.85.5-.14.5-.13,22.42-6.12v29.94Z"/>
      <polygon class="cls-1" points="35.58 48.73 35.58 59.3 28.41 59.3 28.41 46.77 35.58 48.73"/>
      <polygon class="cls-1" points="54.67 22.96 54.67 52.9 36.58 47.96 28.13 45.65 28.13 30.2 31.25 29.35 31.75 29.21 32.25 29.08 54.67 22.96"/>
      <polygon class="cls-1" points="27.63 30.34 27.63 45.51 21.32 43.79 21.32 32.06 27.63 30.34"/>
      <rect class="cls-1" x="5.69" y="31.67" width="14.63" height="2.63"/>
      <path class="cls-1" d="m31.23,3.2l-30.22.1c.1-1.29,1.18-2.3,2.49-2.3h25.25c1.28,0,2.34.96,2.48,2.2Z"/>
      <rect class="cls-1" x="2.57" y="13.42" width="2.12" height="17.75"/>
      <polygon class="cls-1" points="21.88 13.42 21.88 30.86 20.73 31.17 5.69 31.17 5.69 13.42 21.88 13.42"/>
      <path class="cls-1" d="m30.19,7.74v-2.63h-6.25v21.33h6.25V8.74h1.06v19.57l-8.87,2.42V12.92H5.69v-1.56h16.69v-6.25H2.07v6.25h2.62v1.56h-2.62v18.75h2.62v2.63h-1.19c-1.38,0-2.5-1.12-2.5-2.5V3.8l30.25-.1v4.04h-1.06Z"/>
      <rect class="cls-2" x="58.32" y="37.42" width="7.81" height="1"/>
      <rect class="cls-2" x="58.32" y="23.75" width="7.81" height="1" transform="translate(-4.54 22.8) rotate(-20.05)"/>
      <rect class="cls-2" x="61.72" y="47.69" width="1" height="7.81" transform="translate(-7.54 92.42) rotate(-70)"/>
    </g>
  </g>
</svg>