<svg width="15" height="14" viewBox="0 0 24 25" fill="none" xmlns="http://www.w3.org/2000/svg">
<path d="M16 7.49999H15L14 6.49999H10L9 7.49999H8C6.9 7.49999 6 8.39999 6 9.49999V15.5C6 16.6 6.9 17.5 8 17.5H16C17.1 17.5 18 16.6 18 15.5V9.49999C18 8.39999 17.1 7.49999 16 7.49999ZM12 14.5C10.9 14.5 10 13.6 10 12.5C10 11.4 10.9 10.5 12 10.5C13.1 10.5 14 11.4 14 12.5C14 13.6 13.1 14.5 12 14.5Z" fill="#725B30"/>
<path d="M8.57 1.00999L13.05 5.48999V2.53999C17.77 3.00999 21.53 6.76999 22 11.49H24C23.34 3.51999 15.49 -1.09001 8.57 1.00999Z" fill="#725B30"/>
<path d="M10.95 22.46C6.23 21.99 2.47 18.23 2 13.51H0C0.66 21.48 8.51 26.09 15.43 23.99L10.95 19.51V22.46Z" fill="#725B30"/>
</svg>
