<svg width="15" height="14" viewBox="0 0 15 14" fill="none" xmlns="http://www.w3.org/2000/svg">
<path d="M0.799805 1.98004L1.66647 1.13337L13.3331 12.8134L12.4865 13.6667L11.1531 12.3334H2.66647C2.31285 12.3334 1.97371 12.1929 1.72366 11.9429C1.47361 11.6928 1.33314 11.3537 1.33314 11V3.00004C1.33314 2.85337 1.3598 2.71337 1.3998 2.58004L0.799805 1.98004ZM4.66647 1.66671L5.9998 0.333374H9.9998L11.3331 1.66671H13.3331C13.6868 1.66671 14.0259 1.80718 14.2759 2.05723C14.526 2.30728 14.6665 2.64642 14.6665 3.00004V11C14.6665 11.4 14.4931 11.7534 14.2131 12L10.8865 8.66671C11.1731 8.18004 11.3331 7.60671 11.3331 7.00004C11.3331 6.11599 10.9819 5.26814 10.3568 4.64302C9.73171 4.0179 8.88386 3.66671 7.9998 3.66671C7.39314 3.66671 6.8198 3.82671 6.33314 4.11337L3.8798 1.66671H4.66647ZM4.66647 7.00004C4.66647 7.8841 5.01766 8.73194 5.64278 9.35706C6.2679 9.98218 7.11575 10.3334 7.9998 10.3334C8.33314 10.3334 8.68647 10.28 8.9998 10.18L7.81314 9.00004C7.34925 8.95032 6.91635 8.74329 6.58645 8.41339C6.25655 8.08349 6.04953 7.6506 5.9998 7.18671L4.8198 6.00004C4.7198 6.31337 4.66647 6.66671 4.66647 7.00004ZM7.9998 5.00004C8.53024 5.00004 9.03895 5.21075 9.41402 5.58583C9.78909 5.9609 9.9998 6.46961 9.9998 7.00004C10.0001 7.22709 9.96182 7.45253 9.88647 7.66671L7.33314 5.11337C7.54732 5.03803 7.77276 4.9997 7.9998 5.00004Z" fill="#725B30"/>
</svg>
