<svg width="18" height="19" viewBox="0 0 10 14" fill="none" xmlns="http://www.w3.org/2000/svg">
<path d="M4.9987 8.8335C6.10536 8.8335 6.99203 7.94016 6.99203 6.8335L6.9987 2.8335C6.9987 1.72683 6.10536 0.833496 4.9987 0.833496C3.89203 0.833496 2.9987 1.72683 2.9987 2.8335V6.8335C2.9987 7.94016 3.89203 8.8335 4.9987 8.8335ZM8.53203 6.8335C8.53203 8.8335 6.8387 10.2335 4.9987 10.2335C3.1587 10.2335 1.46536 8.8335 1.46536 6.8335H0.332031C0.332031 9.10683 2.14536 10.9868 4.33203 11.3135V13.5002H5.66536V11.3135C7.85203 10.9935 9.66537 9.1135 9.66537 6.8335H8.53203Z" fill="#725B30"/>
</svg>
