<svg width="100%" height="100%" viewBox="0 0 16 11" fill="none" xmlns="http://www.w3.org/2000/svg">
<path d="M7.99996 1.83333C10.5266 1.83333 12.78 3.25333 13.88 5.5C12.78 7.74667 10.5333 9.16667 7.99996 9.16667C5.46663 9.16667 3.21996 7.74667 2.11996 5.5C3.21996 3.25333 5.47329 1.83333 7.99996 1.83333ZM7.99996 0.5C4.66663 0.5 1.81996 2.57333 0.666626 5.5C1.81996 8.42667 4.66663 10.5 7.99996 10.5C11.3333 10.5 14.18 8.42667 15.3333 5.5C14.18 2.57333 11.3333 0.5 7.99996 0.5ZM7.99996 3.83333C8.91996 3.83333 9.66663 4.58 9.66663 5.5C9.66663 6.42 8.91996 7.16667 7.99996 7.16667C7.07996 7.16667 6.33329 6.42 6.33329 5.5C6.33329 4.58 7.07996 3.83333 7.99996 3.83333ZM7.99996 2.5C6.34663 2.5 4.99996 3.84667 4.99996 5.5C4.99996 7.15333 6.34663 8.5 7.99996 8.5C9.65329 8.5 11 7.15333 11 5.5C11 3.84667 9.65329 2.5 7.99996 2.5Z" fill="none"/>
</svg>
