<?xml version="1.0" standalone="no"?>
<!DOCTYPE svg PUBLIC "-//W3C//DTD SVG 20010904//EN"
 "http://www.w3.org/TR/2001/REC-SVG-20010904/DTD/svg10.dtd">
<svg version="1.0" xmlns="http://www.w3.org/2000/svg"
 width="234.000000pt" height="234.000000pt" viewBox="0 0 234.000000 234.000000"
 preserveAspectRatio="xMidYMid meet">
<metadata>
Created by potrace 1.14, written by Peter Selinger 2001-2017
</metadata>
<g transform="translate(0.000000,234.000000) scale(0.100000,-0.100000)"
fill="#000000" stroke="none">
<path d="M821 2324 c-135 -36 -255 -134 -315 -257 -20 -39 -39 -85 -42 -102
-4 -16 -9 -129 -11 -251 l-5 -221 29 -14 c16 -8 309 -169 652 -359 l622 -345
-3 -180 c-3 -170 -5 -183 -30 -237 -37 -79 -98 -142 -177 -181 l-66 -32 -310
0 -310 0 -67 33 c-82 40 -148 111 -179 190 -22 55 -23 71 -25 405 l-1 347 61
-33 c78 -44 142 -79 236 -132 101 -57 165 -93 225 -126 28 -15 118 -65 200
-112 l150 -84 3 -87 c3 -80 1 -88 -21 -110 l-24 -24 -249 0 -248 1 -28 28 -28
27 0 170 0 169 -62 37 c-33 20 -63 34 -66 31 -11 -10 -4 -420 7 -448 18 -47
62 -97 105 -120 39 -21 55 -22 316 -24 263 -3 277 -2 318 18 87 43 114 108
115 279 1 113 -7 150 -33 150 -7 0 -81 40 -345 190 -66 37 -145 81 -175 98
-30 16 -109 60 -175 97 -66 37 -145 81 -175 98 -30 16 -68 38 -85 47 -63 37
-144 80 -150 80 -3 0 -5 -210 -3 -467 3 -459 3 -469 26 -531 12 -35 35 -82 50
-105 72 -113 212 -204 342 -223 41 -6 572 -5 605 1 152 28 289 133 354 270 43
90 51 147 51 369 l0 204 -42 21 c-24 11 -70 36 -103 54 -111 62 -609 340 -676
376 -36 20 -158 88 -272 151 l-206 114 3 176 c4 183 7 203 39 260 51 93 127
156 224 184 71 20 541 22 624 3 111 -27 197 -99 248 -206 l26 -56 3 -357 c2
-197 1 -358 -3 -358 -5 0 -435 239 -545 303 -19 11 -57 32 -85 48 -27 15 -97
54 -155 87 l-105 60 -1 68 c0 38 4 82 9 98 17 48 46 53 315 52 l244 -1 24 -28
c26 -30 26 -34 26 -258 l-1 -116 64 -36 c35 -20 66 -37 67 -37 2 0 3 98 2 218
0 181 -3 224 -18 257 -23 54 -52 84 -110 111 -47 22 -60 23 -300 24 -283 1
-328 -7 -385 -62 -59 -58 -65 -79 -66 -231 l0 -139 559 -314 c308 -173 565
-319 573 -326 7 -6 16 -8 19 -6 5 6 5 886 0 923 -27 193 -175 358 -367 409
-77 21 -611 21 -688 0z"/>
</g>
</svg>
